<?xml version="1.0" encoding="UTF-8" standalone="no"?>
<!-- Created with Inkscape (http://www.inkscape.org/) -->

<svg
   xmlns:dc="http://purl.org/dc/elements/1.1/"
   xmlns:cc="http://creativecommons.org/ns#"
   xmlns:rdf="http://www.w3.org/1999/02/22-rdf-syntax-ns#"
   xmlns:svg="http://www.w3.org/2000/svg"
   xmlns="http://www.w3.org/2000/svg"
   xmlns:xlink="http://www.w3.org/1999/xlink"
   xmlns:sodipodi="http://sodipodi.sourceforge.net/DTD/sodipodi-0.dtd"
   xmlns:inkscape="http://www.inkscape.org/namespaces/inkscape"
   width="51mm"
   height="55mm"
   viewBox="0 0 51 55"
   version="1.1"
   id="svg8"
   inkscape:version="0.92.3 (2405546, 2018-03-11)"
   sodipodi:docname="GreatCoursesLogo.svg">
  <defs
     id="defs2">
    <rect
       height="500"
       width="500"
       id="SVGID_1_"
       x="0"
       y="0" />
  </defs>
  <sodipodi:namedview
     id="base"
     pagecolor="#ffffff"
     bordercolor="#666666"
     borderopacity="1.0"
     inkscape:pageopacity="0.0"
     inkscape:pageshadow="2"
     inkscape:zoom="0.7"
     inkscape:cx="395.76432"
     inkscape:cy="368.83257"
     inkscape:document-units="mm"
     inkscape:current-layer="g74"
     showgrid="false"
     height="209mm"
     inkscape:window-width="1920"
     inkscape:window-height="1001"
     inkscape:window-x="-9"
     inkscape:window-y="-9"
     inkscape:window-maximized="1" />
  <metadata
     id="metadata5">
    <rdf:RDF>
      <cc:Work
         rdf:about="">
        <dc:format>image/svg+xml</dc:format>
        <dc:type
           rdf:resource="http://purl.org/dc/dcmitype/StillImage" />
        <dc:title></dc:title>
      </cc:Work>
    </rdf:RDF>
  </metadata>
  <g
     inkscape:label="Layer 1"
     inkscape:groupmode="layer"
     id="layer1"
     transform="translate(0,-242)">
    <g
       id="g74"
       transform="matrix(1.114891,0,0,1.1922957,-125.92934,-151.04046)">
      <g
         id="g851"
         transform="matrix(0.81325512,0,0,0.81325512,-66.777181,100.77913)">
        <rect
           style="fill:#133569;stroke-width:0.9999904"
           x="375.48215"
           y="22.31159"
           transform="rotate(45)"
           width="39.861618"
           height="39.862617"
           id="rect32" />
        <g
           transform="translate(-0.2712202,81.472978)"
           id="g44">
          <defs
             id="defs35">
            <rect
               y="0"
               x="0"
               id="rect66"
               width="500"
               height="500" />
          </defs>
          <clipPath
             id="SVGID_2_">
            <use
               height="100%"
               width="100%"
               y="0"
               x="0"
               style="overflow:visible"
               xlink:href="#SVGID_1_"
               overflow="visible"
               id="use37" />
          </clipPath>
          <path
             style="fill:#ffffff"
             inkscape:connector-curvature="0"
             clip-path="url(#SVGID_2_)"
             d="m 241.571,232.305 c -0.434,-0.396 -0.651,-0.992 -0.651,-1.785 v -5.04 c 0,-0.793 0.217,-1.389 0.651,-1.785 0.434,-0.397 1.057,-0.595 1.869,-0.595 h 1.974 v 1.063 H 243.3 c -0.345,0 -0.625,0.104 -0.84,0.309 -0.215,0.205 -0.322,0.452 -0.322,0.742 v 5.571 c 0,0.291 0.107,0.538 0.322,0.743 0.215,0.205 0.495,0.307 0.84,0.307 h 1.372 v -3.037 h -1.218 v -1.051 h 2.38 v 5.153 h -2.394 c -0.812,0 -1.435,-0.199 -1.869,-0.595"
             id="path40" />
          <path
             style="fill:#ffffff"
             inkscape:connector-curvature="0"
             clip-path="url(#SVGID_2_)"
             d="m 255.222,232.305 c -0.434,-0.396 -0.649,-0.992 -0.649,-1.785 v -5.04 c 0,-0.793 0.216,-1.389 0.649,-1.785 0.435,-0.397 1.058,-0.595 1.869,-0.595 h 1.988 v 1.063 h -2.128 c -0.347,0 -0.625,0.104 -0.84,0.309 -0.216,0.205 -0.323,0.452 -0.323,0.742 v 5.571 c 0,0.291 0.107,0.538 0.323,0.743 0.215,0.205 0.493,0.307 0.84,0.307 h 2.128 v 1.065 h -1.988 c -0.812,0 -1.435,-0.199 -1.869,-0.595"
             id="path42" />
        </g>
      </g>
    </g>
  </g>
</svg>
